<mxfile host="app.diagrams.net" modified="2021-11-09T10:02:26.246Z" agent="5.0 (Windows NT 10.0; Win64; x64) AppleWebKit/537.36 (KHTML, like Gecko) Chrome/95.0.4638.69 Safari/537.36" etag="ruPv3qcgzi6qS_pfhjuZ" version="15.6.6" type="github">
  <diagram id="GYNesrk6NuDrMIJSwac8" name="Page-1">
    <mxGraphModel dx="1422" dy="762" grid="1" gridSize="10" guides="1" tooltips="1" connect="1" arrows="1" fold="1" page="0" pageScale="1" pageWidth="850" pageHeight="1100" math="0" shadow="0">
      <root>
        <mxCell id="0" />
        <mxCell id="1" parent="0" />
        <mxCell id="pGDaf0UsJ0jrrfz08NYw-6" value="AWS Cloud" style="points=[[0,0],[0.25,0],[0.5,0],[0.75,0],[1,0],[1,0.25],[1,0.5],[1,0.75],[1,1],[0.75,1],[0.5,1],[0.25,1],[0,1],[0,0.75],[0,0.5],[0,0.25]];outlineConnect=0;gradientColor=none;html=1;whiteSpace=wrap;fontSize=12;fontStyle=0;shape=mxgraph.aws4.group;grIcon=mxgraph.aws4.group_aws_cloud_alt;strokeColor=#232F3E;fillColor=none;verticalAlign=top;align=left;spacingLeft=30;fontColor=#232F3E;dashed=0;" parent="1" vertex="1">
          <mxGeometry x="40" y="30" width="700" height="610" as="geometry" />
        </mxCell>
        <mxCell id="yGI92WHQisXF0o71FRDt-4" value="Region" style="points=[[0,0],[0.25,0],[0.5,0],[0.75,0],[1,0],[1,0.25],[1,0.5],[1,0.75],[1,1],[0.75,1],[0.5,1],[0.25,1],[0,1],[0,0.75],[0,0.5],[0,0.25]];outlineConnect=0;gradientColor=none;html=1;whiteSpace=wrap;fontSize=12;fontStyle=0;shape=mxgraph.aws4.group;grIcon=mxgraph.aws4.group_region;strokeColor=#147EBA;fillColor=none;verticalAlign=top;align=left;spacingLeft=30;fontColor=#147EBA;dashed=1;" parent="1" vertex="1">
          <mxGeometry x="70" y="65" width="580" height="535" as="geometry" />
        </mxCell>
        <mxCell id="yGI92WHQisXF0o71FRDt-1" value="VPC" style="points=[[0,0],[0.25,0],[0.5,0],[0.75,0],[1,0],[1,0.25],[1,0.5],[1,0.75],[1,1],[0.75,1],[0.5,1],[0.25,1],[0,1],[0,0.75],[0,0.5],[0,0.25]];outlineConnect=0;gradientColor=none;html=1;whiteSpace=wrap;fontSize=12;fontStyle=0;shape=mxgraph.aws4.group;grIcon=mxgraph.aws4.group_vpc;strokeColor=#248814;fillColor=none;verticalAlign=top;align=left;spacingLeft=30;fontColor=#AAB7B8;dashed=0;" parent="1" vertex="1">
          <mxGeometry x="110" y="110" width="500" height="460" as="geometry" />
        </mxCell>
        <mxCell id="pGDaf0UsJ0jrrfz08NYw-60" value="Availability Zone" style="fillColor=none;strokeColor=#147EBA;dashed=1;verticalAlign=top;fontStyle=0;fontColor=#147EBA;labelBackgroundColor=default;fontSize=10;" parent="1" vertex="1">
          <mxGeometry x="140" y="142" width="350" height="378" as="geometry" />
        </mxCell>
        <mxCell id="yGI92WHQisXF0o71FRDt-2" value="Public subnet" style="points=[[0,0],[0.25,0],[0.5,0],[0.75,0],[1,0],[1,0.25],[1,0.5],[1,0.75],[1,1],[0.75,1],[0.5,1],[0.25,1],[0,1],[0,0.75],[0,0.5],[0,0.25]];outlineConnect=0;gradientColor=none;html=1;whiteSpace=wrap;fontSize=12;fontStyle=0;shape=mxgraph.aws4.group;grIcon=mxgraph.aws4.group_security_group;grStroke=0;strokeColor=#248814;fillColor=#E9F3E6;verticalAlign=top;align=left;spacingLeft=30;fontColor=#248814;dashed=0;" parent="1" vertex="1">
          <mxGeometry x="160" y="170" width="240" height="150" as="geometry" />
        </mxCell>
        <mxCell id="yGI92WHQisXF0o71FRDt-3" value="Private subnet" style="points=[[0,0],[0.25,0],[0.5,0],[0.75,0],[1,0],[1,0.25],[1,0.5],[1,0.75],[1,1],[0.75,1],[0.5,1],[0.25,1],[0,1],[0,0.75],[0,0.5],[0,0.25]];outlineConnect=0;gradientColor=none;html=1;whiteSpace=wrap;fontSize=12;fontStyle=0;shape=mxgraph.aws4.group;grIcon=mxgraph.aws4.group_security_group;grStroke=0;strokeColor=#147EBA;fillColor=#E6F2F8;verticalAlign=top;align=left;spacingLeft=30;fontColor=#147EBA;dashed=0;" parent="1" vertex="1">
          <mxGeometry x="160" y="340" width="240" height="130" as="geometry" />
        </mxCell>
        <mxCell id="pGDaf0UsJ0jrrfz08NYw-4" style="edgeStyle=orthogonalEdgeStyle;rounded=0;orthogonalLoop=1;jettySize=auto;html=1;" parent="1" source="pGDaf0UsJ0jrrfz08NYw-1" target="pGDaf0UsJ0jrrfz08NYw-2" edge="1">
          <mxGeometry relative="1" as="geometry" />
        </mxCell>
        <mxCell id="pGDaf0UsJ0jrrfz08NYw-1" value="" style="sketch=0;outlineConnect=0;fontColor=#232F3E;gradientColor=none;fillColor=#A166FF;strokeColor=none;dashed=0;verticalLabelPosition=bottom;verticalAlign=top;align=center;html=1;fontSize=12;fontStyle=0;aspect=fixed;pointerEvents=1;shape=mxgraph.aws4.nat_gateway;" parent="1" vertex="1">
          <mxGeometry x="337.5" y="226" width="40" height="40" as="geometry" />
        </mxCell>
        <mxCell id="pGDaf0UsJ0jrrfz08NYw-7" style="edgeStyle=orthogonalEdgeStyle;rounded=0;orthogonalLoop=1;jettySize=auto;html=1;" parent="1" source="pGDaf0UsJ0jrrfz08NYw-2" target="pGDaf0UsJ0jrrfz08NYw-5" edge="1">
          <mxGeometry relative="1" as="geometry" />
        </mxCell>
        <mxCell id="pGDaf0UsJ0jrrfz08NYw-2" value="" style="sketch=0;outlineConnect=0;fontColor=default;gradientColor=none;fillColor=#A166FF;strokeColor=none;dashed=0;verticalLabelPosition=bottom;verticalAlign=top;align=center;html=1;fontSize=12;fontStyle=0;aspect=fixed;pointerEvents=1;shape=mxgraph.aws4.customer_gateway;" parent="1" vertex="1">
          <mxGeometry x="430" y="300" width="40" height="40" as="geometry" />
        </mxCell>
        <mxCell id="pGDaf0UsJ0jrrfz08NYw-5" value="" style="sketch=0;outlineConnect=0;fontColor=#232F3E;gradientColor=none;fillColor=#A166FF;strokeColor=none;dashed=0;verticalLabelPosition=bottom;verticalAlign=top;align=center;html=1;fontSize=12;fontStyle=0;aspect=fixed;pointerEvents=1;shape=mxgraph.aws4.internet_gateway;" parent="1" vertex="1">
          <mxGeometry x="717.5" y="300" width="40" height="40" as="geometry" />
        </mxCell>
        <mxCell id="pGDaf0UsJ0jrrfz08NYw-16" style="edgeStyle=orthogonalEdgeStyle;rounded=0;orthogonalLoop=1;jettySize=auto;html=1;fontSize=10;fontColor=default;strokeColor=default;labelBackgroundColor=default;" parent="1" source="pGDaf0UsJ0jrrfz08NYw-8" target="pGDaf0UsJ0jrrfz08NYw-2" edge="1">
          <mxGeometry relative="1" as="geometry">
            <Array as="points">
              <mxPoint x="225" y="220" />
              <mxPoint x="450" y="220" />
            </Array>
          </mxGeometry>
        </mxCell>
        <mxCell id="pGDaf0UsJ0jrrfz08NYw-8" value="" style="sketch=0;outlineConnect=0;fontColor=#232F3E;gradientColor=none;fillColor=#FF9900;strokeColor=none;dashed=0;verticalLabelPosition=bottom;verticalAlign=top;align=center;html=1;fontSize=12;fontStyle=0;aspect=fixed;pointerEvents=1;shape=mxgraph.aws4.instances;" parent="1" vertex="1">
          <mxGeometry x="202" y="232" width="48" height="48" as="geometry" />
        </mxCell>
        <mxCell id="pGDaf0UsJ0jrrfz08NYw-12" style="edgeStyle=orthogonalEdgeStyle;rounded=0;orthogonalLoop=1;jettySize=auto;html=1;fontSize=10;fontColor=default;strokeColor=default;labelBackgroundColor=default;" parent="1" source="pGDaf0UsJ0jrrfz08NYw-9" target="pGDaf0UsJ0jrrfz08NYw-2" edge="1">
          <mxGeometry relative="1" as="geometry">
            <Array as="points">
              <mxPoint x="450" y="390" />
            </Array>
          </mxGeometry>
        </mxCell>
        <mxCell id="pGDaf0UsJ0jrrfz08NYw-9" value="" style="sketch=0;outlineConnect=0;fontColor=#232F3E;gradientColor=none;fillColor=#FF9900;strokeColor=none;dashed=0;verticalLabelPosition=bottom;verticalAlign=top;align=center;html=1;fontSize=12;fontStyle=0;aspect=fixed;pointerEvents=1;shape=mxgraph.aws4.instances;" parent="1" vertex="1">
          <mxGeometry x="202" y="380" width="48" height="48" as="geometry" />
        </mxCell>
        <mxCell id="pGDaf0UsJ0jrrfz08NYw-10" value="Web Servers" style="text;html=1;strokeColor=none;fillColor=none;align=center;verticalAlign=middle;whiteSpace=wrap;rounded=0;fontSize=10;fontColor=default;" parent="1" vertex="1">
          <mxGeometry x="191" y="280" width="70" height="20" as="geometry" />
        </mxCell>
        <mxCell id="pGDaf0UsJ0jrrfz08NYw-11" value="Database Servers" style="text;html=1;strokeColor=none;fillColor=none;align=center;verticalAlign=middle;whiteSpace=wrap;rounded=0;fontSize=10;fontColor=default;" parent="1" vertex="1">
          <mxGeometry x="181" y="428" width="90" height="20" as="geometry" />
        </mxCell>
        <mxCell id="pGDaf0UsJ0jrrfz08NYw-13" value="NAT Gateway" style="text;html=1;strokeColor=none;fillColor=none;align=center;verticalAlign=middle;whiteSpace=wrap;rounded=0;fontSize=10;fontColor=default;" parent="1" vertex="1">
          <mxGeometry x="320" y="266" width="75" height="20" as="geometry" />
        </mxCell>
        <mxCell id="pGDaf0UsJ0jrrfz08NYw-14" value="Internet Gateway" style="text;html=1;strokeColor=none;fillColor=none;align=center;verticalAlign=middle;whiteSpace=wrap;rounded=0;fontSize=10;fontColor=default;" parent="1" vertex="1">
          <mxGeometry x="700" y="340" width="75" height="30" as="geometry" />
        </mxCell>
        <mxCell id="pGDaf0UsJ0jrrfz08NYw-15" value="Router" style="text;html=1;strokeColor=none;fillColor=none;align=right;verticalAlign=middle;whiteSpace=wrap;rounded=0;fontSize=10;fontColor=default;" parent="1" vertex="1">
          <mxGeometry x="395" y="309" width="35" height="22" as="geometry" />
        </mxCell>
        <mxCell id="pGDaf0UsJ0jrrfz08NYw-40" value="Custom Route Table" style="shape=table;startSize=30;container=1;collapsible=0;childLayout=tableLayout;fontSize=10;fontColor=default;strokeColor=default;fillColor=default;align=center;fontStyle=1" parent="1" vertex="1">
          <mxGeometry x="860" y="20" width="180" height="80" as="geometry" />
        </mxCell>
        <mxCell id="pGDaf0UsJ0jrrfz08NYw-41" value="" style="shape=partialRectangle;collapsible=0;dropTarget=0;pointerEvents=0;fillColor=none;top=0;left=0;bottom=0;right=0;points=[[0,0.5],[1,0.5]];portConstraint=eastwest;fontSize=10;fontColor=default;strokeColor=default;align=center;" parent="pGDaf0UsJ0jrrfz08NYw-40" vertex="1">
          <mxGeometry y="30" width="180" height="16" as="geometry" />
        </mxCell>
        <mxCell id="pGDaf0UsJ0jrrfz08NYw-42" value="Destination" style="shape=partialRectangle;html=1;whiteSpace=wrap;connectable=0;overflow=hidden;fillColor=none;top=0;left=0;bottom=0;right=0;pointerEvents=1;fontSize=10;fontColor=default;strokeColor=default;align=center;labelBackgroundColor=default;" parent="pGDaf0UsJ0jrrfz08NYw-41" vertex="1">
          <mxGeometry width="90" height="16" as="geometry">
            <mxRectangle width="90" height="16" as="alternateBounds" />
          </mxGeometry>
        </mxCell>
        <mxCell id="pGDaf0UsJ0jrrfz08NYw-43" value="Target" style="shape=partialRectangle;html=1;whiteSpace=wrap;connectable=0;overflow=hidden;fillColor=none;top=0;left=0;bottom=0;right=0;pointerEvents=1;fontSize=10;fontColor=default;strokeColor=default;align=center;" parent="pGDaf0UsJ0jrrfz08NYw-41" vertex="1">
          <mxGeometry x="90" width="90" height="16" as="geometry">
            <mxRectangle width="90" height="16" as="alternateBounds" />
          </mxGeometry>
        </mxCell>
        <mxCell id="pGDaf0UsJ0jrrfz08NYw-44" value="" style="shape=partialRectangle;collapsible=0;dropTarget=0;pointerEvents=0;fillColor=none;top=0;left=0;bottom=0;right=0;points=[[0,0.5],[1,0.5]];portConstraint=eastwest;fontSize=10;fontColor=default;strokeColor=default;align=center;" parent="pGDaf0UsJ0jrrfz08NYw-40" vertex="1">
          <mxGeometry y="46" width="180" height="18" as="geometry" />
        </mxCell>
        <mxCell id="pGDaf0UsJ0jrrfz08NYw-45" value="10.0.0.0/16" style="shape=partialRectangle;html=1;whiteSpace=wrap;connectable=0;overflow=hidden;fillColor=none;top=0;left=0;bottom=0;right=0;pointerEvents=1;fontSize=10;fontColor=default;strokeColor=default;align=center;" parent="pGDaf0UsJ0jrrfz08NYw-44" vertex="1">
          <mxGeometry width="90" height="18" as="geometry">
            <mxRectangle width="90" height="18" as="alternateBounds" />
          </mxGeometry>
        </mxCell>
        <mxCell id="pGDaf0UsJ0jrrfz08NYw-46" value="Local" style="shape=partialRectangle;html=1;whiteSpace=wrap;connectable=0;overflow=hidden;fillColor=none;top=0;left=0;bottom=0;right=0;pointerEvents=1;fontSize=10;fontColor=default;strokeColor=default;align=center;" parent="pGDaf0UsJ0jrrfz08NYw-44" vertex="1">
          <mxGeometry x="90" width="90" height="18" as="geometry">
            <mxRectangle width="90" height="18" as="alternateBounds" />
          </mxGeometry>
        </mxCell>
        <mxCell id="pGDaf0UsJ0jrrfz08NYw-47" value="" style="shape=partialRectangle;collapsible=0;dropTarget=0;pointerEvents=0;fillColor=none;top=0;left=0;bottom=0;right=0;points=[[0,0.5],[1,0.5]];portConstraint=eastwest;fontSize=10;fontColor=default;strokeColor=default;align=center;" parent="pGDaf0UsJ0jrrfz08NYw-40" vertex="1">
          <mxGeometry y="64" width="180" height="16" as="geometry" />
        </mxCell>
        <mxCell id="pGDaf0UsJ0jrrfz08NYw-48" value="0.0.0.0/0" style="shape=partialRectangle;html=1;whiteSpace=wrap;connectable=0;overflow=hidden;fillColor=none;top=0;left=0;bottom=0;right=0;pointerEvents=1;fontSize=10;fontColor=default;strokeColor=default;align=center;" parent="pGDaf0UsJ0jrrfz08NYw-47" vertex="1">
          <mxGeometry width="90" height="16" as="geometry">
            <mxRectangle width="90" height="16" as="alternateBounds" />
          </mxGeometry>
        </mxCell>
        <mxCell id="pGDaf0UsJ0jrrfz08NYw-49" value="igw-id" style="shape=partialRectangle;html=1;whiteSpace=wrap;connectable=0;overflow=hidden;fillColor=none;top=0;left=0;bottom=0;right=0;pointerEvents=1;fontSize=10;fontColor=default;strokeColor=default;align=center;" parent="pGDaf0UsJ0jrrfz08NYw-47" vertex="1">
          <mxGeometry x="90" width="90" height="16" as="geometry">
            <mxRectangle width="90" height="16" as="alternateBounds" />
          </mxGeometry>
        </mxCell>
        <mxCell id="pGDaf0UsJ0jrrfz08NYw-50" value="Main Route Table" style="shape=table;startSize=30;container=1;collapsible=0;childLayout=tableLayout;fontSize=10;fontColor=default;strokeColor=default;fillColor=default;align=center;fontStyle=1" parent="1" vertex="1">
          <mxGeometry x="870" y="480" width="180" height="80" as="geometry" />
        </mxCell>
        <mxCell id="pGDaf0UsJ0jrrfz08NYw-51" value="" style="shape=partialRectangle;collapsible=0;dropTarget=0;pointerEvents=0;fillColor=none;top=0;left=0;bottom=0;right=0;points=[[0,0.5],[1,0.5]];portConstraint=eastwest;fontSize=10;fontColor=default;strokeColor=default;align=center;" parent="pGDaf0UsJ0jrrfz08NYw-50" vertex="1">
          <mxGeometry y="30" width="180" height="16" as="geometry" />
        </mxCell>
        <mxCell id="pGDaf0UsJ0jrrfz08NYw-52" value="Destination" style="shape=partialRectangle;html=1;whiteSpace=wrap;connectable=0;overflow=hidden;fillColor=none;top=0;left=0;bottom=0;right=0;pointerEvents=1;fontSize=10;fontColor=default;strokeColor=default;align=center;labelBackgroundColor=default;" parent="pGDaf0UsJ0jrrfz08NYw-51" vertex="1">
          <mxGeometry width="90" height="16" as="geometry">
            <mxRectangle width="90" height="16" as="alternateBounds" />
          </mxGeometry>
        </mxCell>
        <mxCell id="pGDaf0UsJ0jrrfz08NYw-53" value="Target" style="shape=partialRectangle;html=1;whiteSpace=wrap;connectable=0;overflow=hidden;fillColor=none;top=0;left=0;bottom=0;right=0;pointerEvents=1;fontSize=10;fontColor=default;strokeColor=default;align=center;" parent="pGDaf0UsJ0jrrfz08NYw-51" vertex="1">
          <mxGeometry x="90" width="90" height="16" as="geometry">
            <mxRectangle width="90" height="16" as="alternateBounds" />
          </mxGeometry>
        </mxCell>
        <mxCell id="pGDaf0UsJ0jrrfz08NYw-54" value="" style="shape=partialRectangle;collapsible=0;dropTarget=0;pointerEvents=0;fillColor=none;top=0;left=0;bottom=0;right=0;points=[[0,0.5],[1,0.5]];portConstraint=eastwest;fontSize=10;fontColor=default;strokeColor=default;align=center;" parent="pGDaf0UsJ0jrrfz08NYw-50" vertex="1">
          <mxGeometry y="46" width="180" height="18" as="geometry" />
        </mxCell>
        <mxCell id="pGDaf0UsJ0jrrfz08NYw-55" value="10.0.0.0/16" style="shape=partialRectangle;html=1;whiteSpace=wrap;connectable=0;overflow=hidden;fillColor=none;top=0;left=0;bottom=0;right=0;pointerEvents=1;fontSize=10;fontColor=default;strokeColor=default;align=center;" parent="pGDaf0UsJ0jrrfz08NYw-54" vertex="1">
          <mxGeometry width="90" height="18" as="geometry">
            <mxRectangle width="90" height="18" as="alternateBounds" />
          </mxGeometry>
        </mxCell>
        <mxCell id="pGDaf0UsJ0jrrfz08NYw-56" value="Local" style="shape=partialRectangle;html=1;whiteSpace=wrap;connectable=0;overflow=hidden;fillColor=none;top=0;left=0;bottom=0;right=0;pointerEvents=1;fontSize=10;fontColor=default;strokeColor=default;align=center;" parent="pGDaf0UsJ0jrrfz08NYw-54" vertex="1">
          <mxGeometry x="90" width="90" height="18" as="geometry">
            <mxRectangle width="90" height="18" as="alternateBounds" />
          </mxGeometry>
        </mxCell>
        <mxCell id="pGDaf0UsJ0jrrfz08NYw-57" value="" style="shape=partialRectangle;collapsible=0;dropTarget=0;pointerEvents=0;fillColor=none;top=0;left=0;bottom=0;right=0;points=[[0,0.5],[1,0.5]];portConstraint=eastwest;fontSize=10;fontColor=default;strokeColor=default;align=center;" parent="pGDaf0UsJ0jrrfz08NYw-50" vertex="1">
          <mxGeometry y="64" width="180" height="16" as="geometry" />
        </mxCell>
        <mxCell id="pGDaf0UsJ0jrrfz08NYw-58" value="0.0.0.0/0" style="shape=partialRectangle;html=1;whiteSpace=wrap;connectable=0;overflow=hidden;fillColor=none;top=0;left=0;bottom=0;right=0;pointerEvents=1;fontSize=10;fontColor=default;strokeColor=default;align=center;" parent="pGDaf0UsJ0jrrfz08NYw-57" vertex="1">
          <mxGeometry width="90" height="16" as="geometry">
            <mxRectangle width="90" height="16" as="alternateBounds" />
          </mxGeometry>
        </mxCell>
        <mxCell id="pGDaf0UsJ0jrrfz08NYw-59" value="nat_gateway-id" style="shape=partialRectangle;html=1;whiteSpace=wrap;connectable=0;overflow=hidden;fillColor=none;top=0;left=0;bottom=0;right=0;pointerEvents=1;fontSize=10;fontColor=default;strokeColor=default;align=center;" parent="pGDaf0UsJ0jrrfz08NYw-57" vertex="1">
          <mxGeometry x="90" width="90" height="16" as="geometry">
            <mxRectangle width="90" height="16" as="alternateBounds" />
          </mxGeometry>
        </mxCell>
        <mxCell id="pGDaf0UsJ0jrrfz08NYw-61" value="10.0.0.0/16" style="text;html=1;strokeColor=none;fillColor=none;align=left;verticalAlign=middle;whiteSpace=wrap;rounded=0;fontSize=10;fontColor=default;" parent="1" vertex="1">
          <mxGeometry x="170" y="120" width="70" height="20" as="geometry" />
        </mxCell>
        <mxCell id="pGDaf0UsJ0jrrfz08NYw-62" value="10.0.0.0/24" style="text;html=1;strokeColor=none;fillColor=none;align=left;verticalAlign=middle;whiteSpace=wrap;rounded=0;fontSize=10;fontColor=default;" parent="1" vertex="1">
          <mxGeometry x="267.5" y="180" width="70" height="20" as="geometry" />
        </mxCell>
        <mxCell id="pGDaf0UsJ0jrrfz08NYw-63" value="10.0.1.0/24" style="text;html=1;strokeColor=none;fillColor=none;align=left;verticalAlign=middle;whiteSpace=wrap;rounded=0;fontSize=10;fontColor=default;" parent="1" vertex="1">
          <mxGeometry x="271" y="350" width="70" height="20" as="geometry" />
        </mxCell>
      </root>
    </mxGraphModel>
  </diagram>
</mxfile>
